<svg viewBox="0 0 477 510" xmlns="http://www.w3.org/2000/svg"><path stroke="#000" stroke-width=".036" stroke-miterlimit="10" fill-rule="evenodd" d="M38.71 266.93c0 134.1 88.63 242.86 197.96 242.86 109.3 0 197.93-108.76 197.93-242.86S345.97 24.08 236.67 24.08C127.34 24.077 38.71 132.83 38.71 266.93h-.002.001z"/><path fill-rule="evenodd" stroke="#000" stroke-width=".036" stroke-miterlimit="10" fill="#dbaf94" d="M42.921 267.36c0 131.87 87.12 238.83 194.58 238.83s194.58-106.96 194.58-238.83c0-131.9-87.12-238.86-194.58-238.86-107.46.004-194.58 106.96-194.58 238.86h.001z"/><path stroke="#000" stroke-width=".036" stroke-miterlimit="10" fill-rule="evenodd" d="M56.097 223.48c-1.224-4.86-3.42-8.32-6.732-10.8s-7.776-3.82-12.996-3.85c-5.364-.11-13.608-.29-18.756 3.35-5.256 3.6-9.396 9.93-12.276 18.03-3.024 7.99-5.616 19.8-5.292 29.59.288 9.76 2.304 21.14 7.452 28.16 5.076 6.91 16.992 11.34 23.112 12.74 5.94 1.12 9.54-1.98 12.744-5.54 3.168-3.6 5.076-8.9 6.012-15.88l6.732-55.8z"/><path fill-rule="evenodd" fill="#dbaf94" d="M50.085 283.38c-.576-1.83-1.296-2.59-2.16-2.41-.864.25-1.908 1.41-3.132 3.6-1.44 2.13-2.988 6.41-5.04 8.68-2.124 2.09-3.708 3.89-6.984 3.85-3.384-.18-8.388-1.98-12.492-4.57-4.14-2.74-9.216-6.37-12.024-11.05-2.952-4.75-4.5-10.41-5.076-17.1-.324-1.23-.108-4.03.504-8.43.612-4.53 1.548-12.31 3.348-18.03 1.764-5.91 3.996-12.28 6.984-16.35 2.952-4.07 6.48-6.62 10.584-7.95 3.888-1.52 9.54-.98 13.212-.72 3.528.18 6.192.82 8.424 1.94 2.124 1.08 3.78 2.52 4.824 4.32 1.044 1.62.684 4.64 1.44 5.76.684 1.04 1.512 1.33 2.628.72 1.008-.72 2.088-1.98 3.384-4.32-2.808 20.66-5.616 41.36-8.424 62.06z"/><path stroke="#000" stroke-width=".036" stroke-miterlimit="10" fill-rule="evenodd" d="M45.297 235.29c-.504-1.51-3.132-4.11-5.544-5.29-2.556-1.34-6.192-2.77-9.396-1.95-3.348.79-7.236 2.7-9.864 6.99-2.664 4.28-5.004 11.8-5.508 18.28-.576 6.41.036 15.45 2.376 19.73 2.304 4.11 7.776 5.19 11.556 5.04 3.6-.28 9.072-4.46 10.584-6.26 1.368-1.87.108-4.79-1.692-4.57-1.836.18-6.228 5.07-8.892 5.79-2.844.61-5.472-.1-7.2-2.16-1.728-2.19-2.664-5.79-2.664-10.36-.072-4.68.828-12.64 2.412-17.07 1.476-4.46 4.32-7.99 6.732-9.61 2.376-1.76 5.22-1.33 7.704-.5 2.376.82 5.076 4.86 6.732 5.29 1.512.21 3.096-1.88 2.664-3.35zm375.483-9.72c1.18-4.83 3.38-8.39 6.73-10.84 3.27-2.52 7.59-3.74 12.96-3.81 5.33-.11 13.53-.29 18.79 3.35 5.18 3.6 9.22 9.93 12.24 18.03 2.92 7.99 5.51 19.8 5.29 29.59-.39 9.76-2.41 21.14-7.45 28.16-5.18 6.91-17.14 11.34-23.08 12.74-6.04 1.11-9.64-1.98-12.74-5.55-3.2-3.6-5.11-8.89-6.01-15.87l-6.73-55.8z"/><path fill-rule="evenodd" fill="#dbaf94" d="M426.79 285.47c.54-1.83 1.26-2.59 2.16-2.41.75.25 1.8 1.4 3.13 3.6 1.4 2.12 2.95 6.41 5.04 8.68 2.05 2.09 3.6 3.89 6.98 3.85 3.28-.18 8.32-1.98 12.5-4.57 4.03-2.7 9.14-6.44 12.02-11.09 2.92-4.79 4.43-10.33 5.08-17.06.28-1.23.07-4.03-.51-8.43-.72-4.53-1.65-12.31-3.35-18.03-1.8-5.91-4.03-12.28-6.98-16.35-3.06-4.07-6.59-6.62-10.58-7.95-4.07-1.52-9.65-.98-13.25-.72-3.64.18-6.3.82-8.43 1.94-2.26 1.08-3.81 2.52-4.78 4.32-1.16 1.62-.76 4.64-1.44 5.76-.76 1.04-1.7 1.33-2.67.72-1.04-.72-2.16-1.98-3.35-4.32 2.81 20.66 5.62 41.36 8.43 62.06z"/><path stroke="#000" stroke-width=".036" stroke-miterlimit="10" fill-rule="evenodd" d="M431.58 237.38c.43-1.52 3.02-4.11 5.54-5.3 2.45-1.33 6.12-2.77 9.36-1.94 3.28.79 7.16 2.7 9.86 6.98 2.52 4.29 4.97 11.81 5.55 18.29.47 6.41-.11 15.45-2.41 19.73-2.45 4.1-7.82 5.18-11.52 5.04-3.71-.29-9.18-4.46-10.59-6.26-1.4-1.88-.25-4.79 1.66-4.58 1.73.18 6.19 5.08 8.93 5.8 2.7.54 5.47-.14 7.2-2.2 1.65-2.23 2.48-5.72 2.62-10.33-.07-4.68-.86-12.63-2.37-17.06-1.55-4.57-4.39-7.92-6.73-9.65-2.49-1.8-5.33-1.26-7.71-.47-2.48.83-5.15 4.86-6.73 5.3-1.62.21-3.2-1.88-2.66-3.35zm-227.45-20.27c0 7.05 5.72 12.78 12.78 12.78 7.05 0 12.78-5.73 12.78-12.78 0-7.06-5.73-12.78-12.78-12.78-7.06 0-12.78 5.72-12.78 12.78z"/><path fill-rule="evenodd" stroke="#000" stroke-width=".036" stroke-miterlimit="10" fill="#fff" d="M210.57 213.76c0 1.91 1.55 3.49 3.49 3.49 1.91 0 3.46-1.58 3.46-3.49s-1.55-3.49-3.46-3.49c-1.94 0-3.49 1.58-3.49 3.49z"/><path stroke="#000" stroke-width=".036" stroke-miterlimit="10" fill-rule="evenodd" d="M188.307 195.483c2.58-2.542 8.47-6.41 13.108-8.976 4.578-2.527 10.317-4.896 14.25-5.843 3.88-.967 7.58-.73 8.544.207.736.968-1.16 3.783-4.073 5.364-3.173 1.55-9.683 1.85-14.008 3.813-4.47 2.01-8.761 5.563-11.756 7.814-3.043 2.241-4.538 4.71-5.956 5.339-1.498.434-3.01-.885-2.929-2.23-.12-1.349.1-3.08 2.82-5.488zm88.323 21.627c0 7.05-5.72 12.78-12.78 12.78-7.05 0-12.78-5.73-12.78-12.78 0-7.06 5.73-12.78 12.78-12.78 7.06 0 12.78 5.72 12.78 12.78z"/><path fill-rule="evenodd" stroke="#000" stroke-width=".036" stroke-miterlimit="10" fill="#fff" d="M266.48 213.51c0 1.91-1.58 3.49-3.49 3.49s-3.49-1.58-3.49-3.49 1.58-3.46 3.49-3.46 3.49 1.55 3.49 3.46z"/><path stroke="#000" stroke-width=".036" stroke-miterlimit="10" fill-rule="evenodd" d="M289.84 193.892c-2.635-2.415-7.957-6.043-12.232-8.255-4.343-2.335-9.65-4.356-13.14-5.103-3.607-.738-7.02-.485-7.745.618-.653.966 1.054 3.634 3.901 5.164 2.895 1.293 8.754 1.37 12.871 3.078 3.944 1.628 8.14 5.16 10.94 7.247 2.738 1.946 4.216 4.506 5.606 4.99 1.395.361 2.488-1.082 2.559-2.373.003-1.31-.355-3.173-2.76-5.366zM73.81 183.59c1.655-4.07 7.847-13.71 12.203-19.91 4.32-6.15 10.908-15.04 13.392-16.95 2.305-2.02 2.555 1.29.615 5.07-2.09 3.75-8.535 10.88-12.53 16.92-4.069 5.98-9.253 15.66-11.52 18.36-2.413 2.45-3.78.36-2.16-3.49zm-3.06 7.78c-.937 1.08-3.457 5.4-3.385 6.84.036 1.29 2.52 1.58 3.564.72.936-1.01 1.836-5.51 1.872-6.7-.072-1.4-1.224-1.83-2.052-.86zm36.21-53.5c-1.18.65-4.75 4.5-5 5.73-.29 1.22 1.94 2.23 3.2 1.62 1.16-.83 3.17-4.76 3.57-5.94.21-1.26-.65-2.2-1.77-1.41zm279 28.3c1.88 2.52 5.08 9.65 7.1 14.58 1.76 4.79 4.1 11.99 4.1 14.11-.07 1.98-2.77.94-4.21-1.62-1.58-2.63-2.81-9.11-4.64-13.61-1.88-4.68-6.09-11.3-6.41-13.61-.51-2.23 2.19-2.41 4.06.15zm-3.92-4.75c-.25-1.05-1.98-4.04-2.95-4.54-1.01-.47-3.06.76-2.85 1.73.11.86 2.81 3.1 3.82 3.64.97.46 2.05-.04 1.98-.83zm16.92 41.11c0-1.12-.22-4.29-1.04-5.04-.87-.61-3.14.11-3.35 1.19-.25.86 1.4 3.6 2.19 4.32.65.64 1.98.36 2.2-.47z"/><path stroke="#000" stroke-width="2" stroke-miterlimit="10" fill-rule="evenodd" d="M239.57 356.86c-7.065.269-9.883.192-17.951 1.082-8.09.908-21.137 2.439-30.099 4.266-8.932 1.844-15.997 3.853-23.113 6.656-7.087 2.821-14.548 6.665-19.138 10.053-4.584 3.395-7.249 6.713-8.171 10.127-.132.699.395 1.34 1.581 2.027 1.165.699 5.067 1.56 5.404 2.03.241.468-1.816 1.174-3.61.792-1.845-.383-5.454-1.568-7.167-2.965-1.818-1.347-2.846-3.834-3.189-5.136-.343-1.28.764-2.16 1.397-2.534.606-.354 1.713-.22 2.188.44.369.678.474 1.884.21 3.617 1.766-3.37 4.958-6.706 9.966-10.13 4.949-3.414 11.091-7.317 19.526-10.271 8.463-2.918 20.902-5.444 30.31-7.166 9.254-1.681 18.004-2.274 24.725-2.965 6.589-.658 9.7-.813 14.73-1.012a236.268 236.268 0 0115.155 0c5.038.2 8.098.354 14.76 1.012 6.648.691 15.397 1.284 24.725 2.965 9.254 1.722 21.825 4.248 30.288 7.166 8.325 2.954 14.57 6.857 19.556 10.27 4.956 3.425 8.17 6.762 9.964 10.13-.264-1.732-.242-2.938.183-3.615.395-.662 1.53-.795 2.19-.441.578.374 1.654 1.254 1.39 2.534-.395 1.302-1.42 3.789-3.185 5.136-1.764 1.397-5.38 2.582-7.167 2.965-1.874.382-3.88-.324-3.588-.792.315-.47 4.115-1.331 5.374-2.03 1.113-.688 1.743-1.328 1.61-2.027-.922-3.414-3.609-6.732-8.17-10.127-4.612-3.388-12.043-7.232-19.138-10.053-7.116-2.803-14.203-4.812-23.135-6.656-8.962-1.827-22.008-3.358-30.099-4.266-8.068-.89-10.865-.813-17.952-1.082-7.065-.276-3.272-.276-10.36 0z"/><path stroke="#000" stroke-width=".036" stroke-miterlimit="10" fill-rule="evenodd" d="M228.5 501.83c-4.36-.28-15.7-2.09-23.04-3.85-7.38-1.84-18-4.61-20.74-6.08-2.7-1.55.22-2.88 4.47-2.45 4.17.39 13.28 3.78 20.37 5.29 6.99 1.44 18.04 2.56 21.35 3.78 3.06 1.19 1.84 3.31-2.41 3.31zm8.35-.07c1.26.4 6.34 1.01 7.6.58 1.04-.51.54-3.17-.69-3.57-1.4-.54-5.68.22-6.87.76-1.23.5-1.33 1.62-.04 2.23zm-63.18-13.57c1.15.79 5.87 2.66 7.2 2.55 1.23-.35 1.37-2.77.29-3.63-1.19-.87-5.62-1.26-6.88-1.05-1.29.11-1.72 1.34-.61 2.13z"/><path fill-rule="evenodd" d="M119.67 92.657c1.8 7.703 1.41 14.793-1.33 21.673-2.81 6.84-9.94 13.03-15.01 19.15-5.149 5.94-8.893 7.92-15.409 16.92-6.66 9.07-18.108 27.32-23.796 37.12-5.688 9.64-6.156 15.58-10.152 20.59-4.248 4.82-10.872 9.29-14.328 8.53-3.456-.94-4.968-1.84-5.904-13.39-.9-11.77-3.996-37.91.288-56.2 4.176-18.43 17.316-40.86 24.552-52.989 7.092-12.06 12.06-15.372 18.108-19.116s11.772-5.076 17.748-3.6c-4.824-7.164-3.276-14.725 4.5-23.364 7.813-8.712 22.643-19.944 42.153-27.864C160.75 12.161 188.11 3.485 215.4.893c27.07-2.664 63.64 1.26 87.08 3.563 23.29 2.27 36.04 4.572 51.98 9.973 15.81 5.327 30.89 12.6 42.48 21.672 11.31 9 18.26 19.188 25.85 31.968 7.6 12.672 15.95 29.988 19.91 43.741 3.89 13.5 3.2 24.3 3.64 37.69.39 13.43 1.47 30.17-1.34 42.44-2.95 12.21-11.37 26.39-16.12 30.21-4.83 3.67-5.62 4.21-12.68-8.25-7.27-12.74-16.99-34.7-29.98-66.99-33.84-.04-63.26-1.44-89.75-4.07-26.5-2.74-45.29-7.13-67.9-12.06-22.68-5.11-48.53-11.3-66.85-17.75-18.29-6.44-32.11-13.1-42.05-20.373z"/><path fill-rule="evenodd" stroke="#000" stroke-width=".036" stroke-miterlimit="10" fill="#ffba35" d="M106.6 83.117c-3.2-2.52-7.807-5.652-12.27-6.479-4.465-1.08-9.109-2.448-14.617 1.044-5.832 3.6-12.816 11.088-19.008 20.376-6.228 9.182-13.5 23.432-17.532 34.592-4.104 11.09-5.22 20.92-6.408 31.72-1.224 10.69-1.224 24.52-.684 32.29.432 7.67 1.008 12.78 3.672 13.79 2.52.9 6.876-1.76 11.7-8.14 4.788-6.58 11.52-20.91 16.992-30.2 5.292-9.22 8.532-16.49 15.12-24.88 6.516-8.49 18.395-18.5 23.975-25.59 5.33-7.24 7.88-12.06 8.78-17.1.83-5.079-1.65-9.327-3.27-12.89-1.73-3.673-3.28-6.049-6.45-8.533z"/><path stroke="#000" stroke-width=".036" stroke-miterlimit="10" fill-rule="evenodd" d="M94.401 95.681c-1.656 5.18-3.708 13.18-7.956 20.63-4.32 7.34-11.844 15.08-17.316 23.07-5.58 7.92-12.06 14.91-15.552 24.02-3.564 9-5.292 24.8-5.472 29.52-.288 4.57 2.772 2.19 4.032-2.13 1.188-4.6.252-16.77 3.168-24.26 2.808-7.45 9.36-14.04 13.68-20.05 4.248-5.94 7.596-10.01 11.844-15.7 4.212-5.98 9.864-12.42 13.212-19.19 3.132-6.8 5.508-16.233 5.76-20.66.22-4.43-3.492-6.23-4.32-5.4-.936.826.324 4.858-1.08 10.15z"/><path fill-rule="evenodd" stroke="#000" stroke-width=".036" stroke-miterlimit="10" fill="#ffba35" d="M153.44 105.76c-5.72-2.16-11.41-4.54-17.06-7.415-5.84-2.916-11.52-5.904-17.07-9.648-5.61-3.888-12.27-8.748-16.09-13.176-3.923-4.5-6.983-8.748-6.803-13.429.108-4.752.72-8.783 7.813-14.867 7.05-6.265 20.52-15.444 34.56-21.853 14-6.408 31.5-12.888 48.99-16.235 17.5-3.492 37.16-3.853 54.94-4.14 17.75-.36 34.13.9 50.4 2.375 16.09 1.368 30.92 2.16 45.86 6.265 15.02 4.104 30.96 11.411 42.99 18.18 11.81 6.696 20.16 13.68 27.43 21.78 7.16 7.991 11.27 18 15.37 25.991 4 7.85 5.83 13.32 8.86 20.992 2.95 7.59 6.98 14.65 8.78 24.51 1.66 9.83 1.51 23.37 1.51 34.09-.07 10.73.11 20.38-1.98 29.63-2.26 9.11-7.92 19.98-11.12 24.99-3.2 4.78-4.97 7.3-8.06 4.24-3.28-3.13-5.33-10.4-11.02-22.78-5.83-12.6-13.35-29.56-23.26-51.84-22.14.39-45.25-.69-70.7-3.24-25.56-2.67-58.43-8.25-80.71-12.32-22.18-4.21-37.55-8.38-51.52-12.13-14.07-3.71-24.55-6.98-32.11-9.97z"/><path stroke="#000" stroke-width=".036" stroke-miterlimit="10" fill-rule="evenodd" d="M139.22 46.613c13.03-2.052 51.41-8.316 80.28-9.36 28.76-1.188 64.44.756 91.08 2.772 26.6 2.124 54 6.552 67.03 9.396 12.64 2.628 10.05 5.904 9.18 6.372-.86.288-3.38-2.34-14.51-4.284-11.44-2.124-29.88-5.724-52.95-7.739-23.33-2.053-60.09-4.645-84.85-4.429-24.7.072-46.62 3.601-62.03 5.328-15.41 1.656-24.23 4.284-29.77 4.681-5.62.251-16.31-.758-3.46-2.737zm-3.74 9.683c14.36 3.168 52.27 14.185 80.53 20.27 28.26 5.867 64.08 12.095 87.73 15.083 23.51 2.916 37.15 3.132 52.6 2.448 15.26-.792 31.39-5.616 39.09-6.696 7.6-1.08 7.64-.864 6.63.107-1.12.9-4.79 3.133-12.96 5.04-8.39 1.801-20.02 5.58-36.4 5.904-16.49.145-40.1-1.69-61.41-4.392-21.42-2.7-41.37-6.372-65.67-11.557-24.44-5.363-63.21-15.659-79.23-19.8-15.92-4.212-14.01-3.672-15.81-4.752-1.91-1.15-9.4-4.75 4.9-1.655zM126.3 72.46c13.82 4.104 54.1 20.7 81.68 28.26 27.5 7.38 57.74 12.67 81.97 15.88 24.09 2.98 43.6 2.55 61.45 2.59 17.72-.04 36.36-2.85 44.28-2.59 7.78.07 8.68 2.41 2.13 3.56-6.88 1.01-23.69 3.2-42.09 3.13-18.57-.11-44.49-1.04-67.6-3.63-23.19-2.85-47.06-7.02-69.66-12.53-22.58-5.62-49.14-15.23-64.59-20.378-15.51-5.11-23.07-8.027-27.68-10.296-4.68-2.483-13.57-8.027.11-3.996zm291.7 97.7c1.95 3.86 6.16 12.57 7.64 16.96 1.29 4.28 1.15 8.35.68 8.86-.5.36-1.22-1.73-3.42-6.27-2.27-4.68-6.48-13.75-10.15-20.99-3.92-7.27-10.37-17.46-12.38-21.96-1.98-4.5-.36-5.97.97-4.82 1.4 1.08 4.57 7.45 6.87 11.2 2.16 3.7 4.15 7.74 5.94 10.72 1.48 2.78 2.02 2.42 3.85 6.3zm-199.65-31.71c-4.36-.51-15.41-3.42-22.61-5.69-7.31-2.34-17.57-6.08-20.23-7.74-2.63-1.73.5-2.92 4.68-2.05 4.07.72 12.96 4.82 19.87 6.87 6.8 2.09 17.82 3.96 20.99 5.48 2.91 1.33 1.51 3.52-2.7 3.13zm8.35.61c1.26.47 6.23 1.55 7.52 1.15 1.16-.47.8-3.06-.39-3.6-1.26-.54-5.83-.32-6.91.22-1.34.36-1.41 1.62-.22 2.23zm-61.88-18.61c1.04.86 5.58 3.06 6.94 3.09 1.3-.18 1.44-2.66.58-3.56-1.08-.9-5.54-1.76-6.73-1.62-1.3.04-1.84 1.15-.79 2.09z"/></svg>