<svg xmlns="http://www.w3.org/2000/svg" viewBox="63 63 478 534"><style/><g id="head"><ellipse id="head_outline" cx="300" cy="318" rx="195" ry="252" stroke-width="4" stroke="#000" fill="#93614a" class="skin-color"/><path id="left_ear_background" d="M120.59 271.58c-1.22-5.09-3.42-8.71-6.73-11.32-3.31-2.6-7.77-3.99-12.99-4.03-5.36-.11-13.61-.3-18.75 3.51-5.25 3.77-9.39 10.41-12.27 18.9-3.02 8.38-5.61 20.76-5.29 31.03.28 10.22 2.3 22.15 7.45 29.51 5.07 7.24 16.99 11.88 23.11 13.35 5.94 1.17 9.54-2.07 12.74-5.8 3.16-3.77 5.07-9.33 6.01-16.65l6.73-58.5z"/><path id="left_ear_foreground" class="skin-color" d="M114.08 334.4c-.57-1.93-1.29-2.72-2.16-2.53-.86.27-1.9 1.47-3.13 3.77-1.44 2.23-2.98 6.72-5.04 9.1-2.12 2.19-3.7 4.08-6.98 4.03-3.38-.19-8.39-2.07-12.49-4.79-4.14-2.86-9.21-6.68-12.02-11.58-2.95-4.98-4.5-10.9-5.07-17.93-.32-1.27-.1-4.22.5-8.82.61-4.76 1.55-12.91 3.35-18.91 1.76-6.18 3.99-12.87 6.98-17.13 2.95-4.26 6.48-6.95 10.58-8.34 3.88-1.58 9.54-1.01 13.21-.75 3.52.19 6.19.87 8.42 2.03 2.12 1.13 3.78 2.64 4.82 4.53 1.04 1.69.68 4.87 1.44 6.04.68 1.1 1.51 1.4 2.62.75 1-.75 2.08-2.07 3.38-4.53-2.81 21.67-5.61 43.37-8.42 65.08z" fill="#93614a"/><path id="left_ear_line" d="M108.79 283.97c-.5-1.58-3.13-4.29-5.54-5.54-2.55-1.39-6.19-2.9-9.39-2.04-3.34.83-7.23 2.83-9.86 7.32-2.66 4.48-5 12.38-5.5 19.17-.57 6.71.03 16.18 2.37 20.68 2.3 4.29 7.77 5.43 11.55 5.28 3.6-.3 9.07-4.68 10.58-6.57 1.37-1.96.11-5.02-1.69-4.79-1.83.18-6.23 5.31-8.89 6.08-2.84.63-5.47-.11-7.2-2.26-1.72-2.3-2.66-6.08-2.66-10.87-.07-4.9.82-13.25 2.41-17.89 1.47-4.67 4.32-8.37 6.73-10.07 2.37-1.84 5.22-1.39 7.7-.52 2.37.87 5.07 5.09 6.73 5.54 1.51.22 3.09-1.96 2.66-3.51z"/><path id="right_ear_background" d="M484 274c1.18-5.05 3.38-8.79 6.73-11.36 3.27-2.64 7.59-3.92 12.96-3.99 5.33-.11 13.53-.3 18.79 3.51 5.18 3.77 9.22 10.41 12.24 18.9 2.92 8.37 5.51 20.76 5.29 31.02-.39 10.23-2.41 22.16-7.45 29.52-5.18 7.24-17.14 11.88-23.08 13.35-6.04 1.16-9.64-2.07-12.74-5.81-3.2-3.77-5.11-9.32-6.01-16.63l-6.73-58.5z"/><path id="right_ear_foreground" class="skin-color" d="M490.29 336.58c.54-1.92 1.26-2.71 2.16-2.52.75.26 1.8 1.47 3.13 3.77 1.4 2.23 2.95 6.72 5.04 9.1 2.05 2.19 3.6 4.08 6.98 4.03 3.28-.18 8.32-2.07 12.5-4.79 4.03-2.83 9.14-6.75 12.02-11.62 2.92-5.02 4.43-10.83 5.08-17.88.28-1.29.07-4.22-.51-8.83-.72-4.75-1.65-12.9-3.35-18.9-1.8-6.19-4.03-12.87-6.98-17.14-3.06-4.25-6.59-6.94-10.58-8.33-4.07-1.58-9.65-1.01-13.25-.75-3.64.18-6.3.87-8.43 2.03-2.26 1.13-3.81 2.64-4.78 4.53-1.16 1.69-.76 4.87-1.44 6.04-.76 1.1-1.7 1.39-2.67.75-1.04-.75-2.16-2.07-3.35-4.53 2.81 21.66 5.62 43.36 8.43 65.07z" fill="#93614a" fill-rule="evenodd"/><path id="right_ear_line" d="M495.08 286.16c.43-1.58 3.02-4.3 5.54-5.54 2.45-1.4 6.12-2.91 9.36-2.04 3.28.82 7.16 2.83 9.86 7.32 2.52 4.48 4.97 12.37 5.55 19.16.47 6.72-.11 16.19-2.41 20.68-2.45 4.3-7.82 5.44-11.52 5.28-3.71-.3-9.18-4.67-10.59-6.56-1.4-1.96-.25-5.02 1.66-4.79 1.73.18 6.19 5.31 8.93 6.07 2.7.56 5.47-.14 7.2-2.29 1.65-2.33 2.48-6 2.62-10.84-.07-4.9-.86-13.24-2.37-17.88-1.55-4.79-4.39-8.3-6.73-10.11-2.49-1.88-5.33-1.32-7.71-.49-2.48.87-5.15 5.09-6.73 5.55-1.62.22-3.2-1.97-2.66-3.51z"/><path id="chin_line" d="M290 563c-4.36-.29-15.7-2.19-23.04-4.03-7.38-1.92-18-4.83-20.74-6.37-2.7-1.62.22-3.01 4.47-2.56 4.17.4 13.28 3.96 20.37 5.54 6.99 1.5 18.04 2.68 21.35 3.96 3.06 1.24 1.84 3.47-2.41 3.47zm8.35-.07c1.26.41 6.34 1.05 7.6.6 1.04-.53.54-3.32-.69-3.74-1.4-.56-5.68.23-6.87.79-1.23.52-1.33 1.69-.04 2.33zm-63.18-14.22c1.15.82 5.87 2.78 7.2 2.68 1.23-.37 1.37-2.9.29-3.81-1.19-.9-5.62-1.32-6.88-1.09-1.29.1-1.72 1.39-.61 2.22z"/></g><g id="eyes-l" class="eyes"><circle r="14" cy="275" cx="379" id="left_eye-l"/><circle fill="#fff" r="4" cy="271" cx="379" id="left_pupil-l"/><circle r="14" cy="272" cx="219" id="right_eye-l"/><circle fill="#fff" r="4" cy="268" cx="217" id="right_pupil-l"/><path d="M195.865 213.569c4.1-1.323 12.611-2.785 19.014-3.254 6.39-.607 14.024-.293 18.987.435 4.866.669 9.249 2.718 9.899 3.999.385 1.256-2.869 3.292-7.003 3.585-4.227.11-12.03-2.461-17.87-2.35-5.87-.043-12.632 1.81-16.973 2.71-4.33.86-7.282 2.754-9.147 2.724-2.034-.203-2.928-2.294-2.465-3.534.492-1.305 1.405-3.164 5.56-4.325l-.002.01z" id="left_eyebrow"/><path d="M402.87 211.01c-4.242-.994-12.848-1.816-19.193-1.835-6.521-.093-14.11.788-18.902 1.845-4.906 1.067-9.134 3.44-9.574 4.723-.395 1.32 3.002 3.109 7.24 3.058 4.13-.17 11.72-3.313 17.647-3.671 5.756-.445 12.627.905 17.136 1.437 4.316.56 7.392 2.233 9.315 2.04 1.92-.319 2.656-2.47 2.195-3.708-.681-1.23-1.73-3.016-5.867-3.899l.004.01z" id="right_eyebrow-l"/><path id="eyes-l-glass-1" d="M187.5 228.5c42 4 43-1 69 5s27 10 36 5-16 79-52 83-52 2-62-10-30-68-21-74l30-9z" stroke-width="0" stroke="#000" fill="#fff" fill-opacity=".2"/><path stroke="#000" id="eyes-l-glass-2" d="M307.5 247.838c11-9.7 56-21.34 77-19.4 21 1.94-18-6.79 21 1.94s39 8.73 37 17.46-6 46.562-21 60.142c-15 13.58-20 20.37-51 11.64s-23-1.94-40-24.25-4-21.34-4.5-21.826" fill-opacity=".2" stroke-width="0" fill="#fff"/><path d="M210.296 225.216c17.259.565 34.346 2.627 51.234 6.25 11.99 2.571 24.006 4.95 36.337 5.07 11.54.111 22.919-1.426 34.252-3.4 13.304-2.317 26.523-5.116 39.916-6.931 11.947-1.62 23.85-1.603 35.829.027a281.816 281.816 0 0135.333 7.126c2.258.608 4.645.727 6.937 1.232 3.219.708 4.369 2.23 3.988 5.486-.333 2.843-.254 5.645.008 8.48.221 2.396-.265 4.382-2.82 5.658-2.824 1.408-4.509 4.068-5.896 6.84-2.683 5.356-3.96 11.178-5.572 16.887-1.48 5.24-2.793 10.529-4.665 15.652-5.19 14.203-15.135 23.803-29.33 28.615-18.836 6.385-37.6 5.565-55.847-2.497-13.767-6.083-22.671-16.9-28.78-30.298-2.583-5.667-4.459-11.59-6.54-17.44-1.044-2.94-2.284-5.776-4.173-8.295-1.703-2.27-3.851-3.607-6.801-3.641-2.787-.033-5.563-.389-8.357.037-2.268.346-3.962 1.425-5.15 3.373-1.782 2.918-2.972 6.094-3.775 9.372-2.932 11.969-8.587 22.527-16.152 32.202-8.668 11.084-19.848 17.995-33.723 20.301-15.137 2.516-30.095 1.631-44.705-3.327-2.696-.915-5.267-2.126-7.815-3.39-6.738-3.342-11.515-8.442-14.563-15.336-4.968-11.233-9.488-22.612-12.441-34.555-1.13-4.57-3.276-8.473-6.798-11.69-2.753-2.515-5.26-5.3-5.924-9.188-.454-2.652-.29-5.335-.192-8 .044-1.199.127-2.4.03-3.59-.095-1.161.338-1.668 1.496-1.83 9.27-1.29 18.351-3.557 27.527-5.334 9.243-1.79 18.528-3.298 27.939-3.839 3.054-.175 6.128-.027 9.193-.027zm168.26 6.491c-10.938.139-20.52.885-29.926 3.207-6.865 1.695-13.617 3.692-19.64 7.554-5.1 3.27-8.744 7.592-9.58 13.778-.494 3.656-.183 7.318.74 10.875 3.016 11.616 7.894 22.43 15.063 32.065 6.717 9.027 15.63 15.205 26.588 18.14 13.56 3.63 27.168 3.515 40.702-.167 11.957-3.254 20.187-10.7 24.651-22.255 1.318-3.41 2.376-6.898 3.348-10.417 2.665-9.656 4.572-19.416 4.096-29.503-.28-5.964-2.932-10.623-7.855-14.004-3.05-2.095-6.43-3.503-9.99-4.433-12.939-3.382-26.17-4.45-38.196-4.84zm-151.434.017c-10.97.404-18.29.836-25.588 1.595-6.97.725-13.897 1.651-20.557 3.984-10.845 3.8-15.235 9.924-15.117 21.349.137 13.215 3.406 25.777 8.408 37.908 4.506 10.927 12.784 17.723 24.154 20.812 10.163 2.76 20.499 3.338 30.92 1.958 12.415-1.645 23.282-6.544 32.163-15.528 4.245-4.294 7.295-9.364 9.98-14.698 4.077-8.097 8.037-16.262 9.494-25.302 1.444-8.963-1.46-16.213-9.266-21.262-2.025-1.31-4.135-2.458-6.366-3.37-13.417-5.488-27.427-7.625-38.225-7.446z" id="eyes-l-glasses" stroke="#000"/><path stroke="#000" id="eyes-l-stick-1" stroke-width="13" d="M146.5 240.5l-35 17"/><path id="eyes-l-stick-2" stroke-width="13" stroke="#000" d="M449.5 241.5l40 23"/></g><g id="mouth-e" class="mouth"><path id="mouth-e-mouth" class="not-sad" d="M211.29 406.277c6.11 7.36 13.155 13.818 21.544 19.528 8.4 5.655 16.413 10.605 28.257 14.368 11.76 3.564 28.132 7.327 41.735 7.173 13.489-.32 28.216-5.193 38.665-8.361 10.158-3.323 16.038-5.897 22.564-10.77 6.557-4.875 11.906-10.937 16.486-18.34l-4.725-2.806c-4.684 6.887-10.939 12.707-19.182 17.933-8.357 5.115-19.296 10.022-29.943 12.762a110.81 110.81 0 01-33.305 2.805c-11.5-1.023-25.03-4.753-34.657-7.954-9.596-3.29-15.55-6.656-22.523-11.167-7.077-4.555-13.488-9.824-19.514-15.963-1.8.23-3.601.517-5.402.792z" stroke-width=".036" stroke="#000"/></g><g id="hair-p" class="hair"><path stroke="#000" id="hair-p-left" class="hair-color" stroke-width="3" fill="#999" d="M122.148 189.753c-2.134 2.169-3.564 4.909-4.51 8.46-1.032 3.484-1.435 7.68-1.333 12.502-2.425 4.533-4.024 8.32-4.98 11.82-.91 3.524-1.27 6.354-.653 8.835-2.977 4.865-3.974 9.618-3.382 14.516.575 5.046 3.837 12.065 7.119 14.68 3.23 2.52 8.065 1.453 11.888.288 3.617-1.165 5.997-2.15 9.835-6.937 3.628-4.799 7.75-11.753 12.238-21.373 4.973-5.267 8.669-10.386 11.287-15.6 2.527-5.23 3.896-10.202 4.062-15.37 5.862-8.923 9.712-15.94 11.757-21.302 1.962-5.37 2.028-8.756.173-10.567 3.625-6.058 5.767-10.402 6.638-13.292.73-2.89.083-4.196-1.941-3.918 4.535-6.562 7.493-11.5 8.74-15.312 1.207-3.76.827-6.092-1.223-7.093 4.427-2.43 7.098-5.26 8.089-8.819.915-3.577.402-9.095-2.253-12.133-2.92-2.95-10.923-5.334-14.172-5.43-3.253-.041-4.974 1.682-5.17 5.164-6.45 3.04-11.904 7.035-16.48 12.32-4.626 5.347-8.156 11.525-10.907 19.117-4.993 5.466-8.424 10.02-10.698 13.737-2.305 3.691-3.145 6.607-2.739 8.54-5.303 6.877-8.655 12.536-10.624 17.078-1.913 4.63-2.175 7.8-.761 10.09z"/><path stroke="#000" id="hair-p-right" class="hair-color" stroke-width="3" fill="#999" d="M482.892 196.52c1.785 2.053 3.09 4.834 3.837 8.206.787 3.276 1.109 7.268.858 11.862 1.84 4.41 3.255 8.301 3.918 11.666.697 3.366.835 6.045.349 8.37 2.43 4.495 3.444 9.096 2.94 13.667-.53 4.594-2.948 10.56-5.879 13.677-2.983 2.88-7.17 4.798-11.61 3.899-4.444-1.13-10.557-5.017-14.789-10.085-4.332-5.249-7.568-12.053-10.445-20.826-4.34-5.258-7.54-10.39-9.697-15.332-2.245-5.103-3.213-9.913-3.29-14.734-5.032-8.723-8.29-15.617-9.966-20.726-1.656-5.188-1.664-8.505.08-10.007-3.116-5.89-4.98-10.125-5.61-12.907-.632-2.797-.02-3.917 1.833-3.605-3.954-6.486-6.447-11.32-7.465-14.964-1.026-3.685-.55-5.768 1.304-6.582-4.555-4.298-6.972-8.46-7.267-12.476-.384-4.345 2.212-9.32 5.395-12.04 3.248-2.647 10.446-4.222 13.95-3.493 3.478.592 5.69 2.96 6.747 7.244 5.743 3.181 10.441 7.236 14.507 12.504 4.03 5.174 6.966 11.322 9.292 18.652 4.214 5.347 7.326 9.835 9.23 13.521 1.916 3.583 2.673 6.322 2.27 8.219 4.485 6.76 7.41 12.185 9.06 16.66 1.566 4.42 1.753 7.526.448 9.63z"/></g><circle stroke="transparent" stroke-width="0" cx="190" cy="190" fill="none" id="hair-a" class="hair" r="1"/></svg>