<svg viewBox="0 0 674 334" xmlns="http://www.w3.org/2000/svg"><path d="M7.732 118.15C-13.336 32.56 154.243 6.108 342.15 6.957c187.907.849 353.596 36.055 321.664 122.646-31.932 86.59-131.512 160.042-322.419 160.193C150.49 289.947 28.8 203.74 7.732 118.15z" stroke-opacity="null" stroke-linecap="null" stroke-linejoin="null" stroke-width="1.5" stroke="#000" fill-opacity="null" fill="#fff"/><path d="M27.773 227.376c0-45.027 135.31-60.5 311-60.5s311 20.473 311 65.5c0 45.028-135.31 97.5-311 97.5s-311-57.472-311-102.5z" stroke-opacity="null" stroke-linecap="null" stroke-linejoin="null" stroke-width="1.5" stroke="#000"/><path stroke="#00007f" d="M30.724 163.876h614.077v60H29.745l.98-60z" stroke-linecap="null" stroke-linejoin="null" stroke-width="1.5" fill="#00007f"/><path stroke="#f9c019" stroke-linecap="null" stroke-linejoin="null" stroke-width="22" fill="none" d="M47.652 193.876l579.251 4"/><ellipse ry="22.29" rx="21.3" cy="192.945" cx="53.974" fill="#f9c019"/><ellipse ry="22.29" rx="21.3" cy="197.898" cx="623.618" fill="#f9c019"/><path d="M522.073 224.152l48.284 69.076-45.571 13.87-19.814 5.944-10.898-88.171 27.999-.72z" fill="#999"/><path d="M264.495 100.505c0-16.146 32.703 26.254 74.301 26.254s68.357-39.428 73.31-28.235c4.954 11.193-32.703 42.104-74.3 42.104-41.598 0-73.311-23.976-73.311-40.123z" fill="#f9c019"/><path stroke="#f9c019" stroke-width="22" stroke-linecap="round" stroke-linejoin="null" fill="none" d="M336 128V28"/><path stroke-linecap="round" stroke-linejoin="null" stroke-width="20" stroke="#f9c019" fill="none" d="M310 65h54"/></svg>